<?xml version="1.0" encoding="utf-8"?>
<!-- Generator: Adobe Illustrator 16.0.0, SVG Export Plug-In . SVG Version: 6.00 Build 0)  -->
<!DOCTYPE svg PUBLIC "-//W3C//DTD SVG 1.1//EN" "http://www.w3.org/Graphics/SVG/1.1/DTD/svg11.dtd">
<svg version="1.1" id="Layer_1" xmlns="http://www.w3.org/2000/svg" xmlns:xlink="http://www.w3.org/1999/xlink" x="0px" y="0px"
	 width="600px" height="600px" viewBox="0 0 600 600" enable-background="new 0 0 600 600" xml:space="preserve">
<g>
	<path d="M349.1,358.5H220.9l-22.5,52.2c-5.5,12.9-8.3,22.5-8.3,28.8c0,5,2.4,9.5,7.2,13.3c4.8,3.8,15.2,6.3,31.1,7.4v9H124.2v-9
		c13.8-2.4,22.8-5.6,26.9-9.5c8.3-7.8,17.5-23.7,27.6-47.6l116.5-272.5h8.5l115.2,275.4c9.3,22.1,17.7,36.5,25.3,43.1
		s18.1,10.3,31.6,11.1v9H345.2v-9c13.2-0.6,22.1-2.8,26.7-6.6c4.6-3.7,7-8.3,7-13.7c0-7.2-3.3-18.5-9.8-33.9L349.1,358.5z
		 M342.2,340.4l-56.2-133.8l-57.6,133.8H342.2z"/>
</g>
</svg>
