<?xml version="1.0" encoding="utf-8"?>
<!-- Generator: Adobe Illustrator 16.0.0, SVG Export Plug-In . SVG Version: 6.00 Build 0)  -->
<!DOCTYPE svg PUBLIC "-//W3C//DTD SVG 1.1//EN" "http://www.w3.org/Graphics/SVG/1.1/DTD/svg11.dtd">
<svg version="1.1" id="Layer_1" xmlns="http://www.w3.org/2000/svg" xmlns:xlink="http://www.w3.org/1999/xlink" x="0px" y="0px"
	 width="600px" height="600px" viewBox="0 0 600 600" enable-background="new 0 0 600 600" xml:space="preserve">
<g>
	<path d="M349.072,358.472H220.898l-22.461,52.246c-5.535,12.859-8.301,22.461-8.301,28.809c0,5.047,2.399,9.484,7.202,13.307
		c4.799,3.826,15.175,6.309,31.128,7.445v9.033H124.219v-9.033c13.832-2.441,22.785-5.615,26.855-9.521
		c8.301-7.813,17.494-23.682,27.588-47.607l116.455-272.461h8.545l115.234,275.391c9.277,22.137,17.701,36.5,25.27,43.092
		s18.104,10.295,31.615,11.107v9.033H345.166v-9.033c13.184-0.648,22.096-2.846,26.734-6.592c4.639-3.742,6.957-8.301,6.957-13.672
		c0-7.16-3.258-18.471-9.766-33.936L349.072,358.472z M342.236,340.405l-56.152-133.789l-57.617,133.789H342.236z"/>
</g>
</svg>
