<?xml version="1.0" encoding="utf-8"?>
<!-- Generator: Adobe Illustrator 16.0.0, SVG Export Plug-In . SVG Version: 6.00 Build 0)  -->
<!DOCTYPE svg PUBLIC "-//W3C//DTD SVG 1.1//EN" "http://www.w3.org/Graphics/SVG/1.1/DTD/svg11.dtd">
<svg version="1.1" id="Слой_1" xmlns="http://www.w3.org/2000/svg" xmlns:xlink="http://www.w3.org/1999/xlink" x="0px" y="0px"
	 width="20px" height="20px" viewBox="0 0 20 20" enable-background="new 0 0 20 20" xml:space="preserve">
<path fill="#999999" d="M10,6c1.104,0,2,0.896,2,2c0,1.105-0.896,2-2,2c-1.104,0-2-0.895-2-2C8,6.896,8.896,6,10,6z"/>
<path fill="#C4C4C4" d="M10,18.599l-0.78-0.974C8.686,16.959,4,11.025,4,8c0-3.308,2.691-6,6-6s6,2.691,6,6
	c0,3.025-4.686,8.959-5.22,9.625L10,18.599z M10,4C7.794,4,6,5.794,6,8c0,1.524,2.208,4.974,4,7.365c1.792-2.393,4-5.843,4-7.365
	C14,5.794,12.206,4,10,4z"/>
</svg>
