<?xml version="1.0" encoding="utf-8"?>
<!-- Generator: Adobe Illustrator 16.0.0, SVG Export Plug-In . SVG Version: 6.00 Build 0)  -->
<!DOCTYPE svg PUBLIC "-//W3C//DTD SVG 1.1//EN" "http://www.w3.org/Graphics/SVG/1.1/DTD/svg11.dtd">
<svg version="1.1" id="Layer_1" xmlns="http://www.w3.org/2000/svg" xmlns:xlink="http://www.w3.org/1999/xlink" x="0px" y="0px"
	 width="600px" height="600px" viewBox="0 0 600 600" enable-background="new 0 0 600 600" xml:space="preserve">
<path d="M550.7,331.6c0-0.1,0-0.2,0-0.2c0,51.9-42.1,94-94,94c-28.9,0-54.4-13.3-71.6-33.8c-22.4,20.8-52.1,33.8-85.1,33.8
	c-69.2,0-125.3-56.1-125.3-125.3S230.8,174.7,300,174.7S425.3,230.8,425.3,300c0,22.9,0,31.3,0,31.3c0,17.3,14,31.3,31.3,31.3
	c11.9,0,21.9-6.9,27.2-16.7c0,0,4.1-13.4,4.1-46c0-103.8-84.2-188-188-188c-103.8,0-188,84.2-188,188c0,103.8,84.2,188,188,188
	c24.7,0,48.1-5,69.7-13.7l23.4,58.3c-28.8,11.6-60.2,18.1-93.1,18.1C161.6,550.7,49.3,438.4,49.3,300
	C49.3,161.6,161.6,49.3,300,49.3c138.4,0,250.7,112.3,250.7,250.7C550.7,324.1,550.7,330.3,550.7,331.6z M300,237.3
	c-34.6,0-62.7,28.1-62.7,62.7c0,34.6,28.1,62.7,62.7,62.7c34.6,0,62.7-28.1,62.7-62.7C362.7,265.4,334.6,237.3,300,237.3z"/>
</svg>
