<?xml version="1.0" encoding="utf-8"?>
<!-- Generator: Adobe Illustrator 16.0.2, SVG Export Plug-In . SVG Version: 6.00 Build 0)  -->
<!DOCTYPE svg PUBLIC "-//W3C//DTD SVG 1.1//EN" "http://www.w3.org/Graphics/SVG/1.1/DTD/svg11.dtd">
<svg version="1.1" id="Layer_1" xmlns="http://www.w3.org/2000/svg" xmlns:xlink="http://www.w3.org/1999/xlink" x="0px" y="0px"
	 width="20px" height="20px" viewBox="0 0 20 20" enable-background="new 0 0 20 20" xml:space="preserve">
<path fill-rule="evenodd" clip-rule="evenodd" d="M18,11.007C18,11.004,18,11,18,11c0,1.657-1.344,3-3,3
	c-0.922,0-1.735-0.424-2.285-1.077C12,13.586,11.051,14,10,14c-2.209,0-4-1.791-4-4s1.791-4,4-4s4,1.791,4,4c0,0.731,0,1,0,1
	c0,0.553,0.447,1,1,1c0.381,0,0.699-0.22,0.869-0.533c0,0,0.131-0.427,0.131-1.467c0-3.313-2.687-6-6-6s-6,2.687-6,6s2.687,6,6,6
	c0.787,0,1.536-0.161,2.225-0.438l0.745,1.861C12.051,17.792,11.051,18,10,18c-4.418,0-8-3.582-8-8s3.582-8,8-8c4.418,0,8,3.582,8,8
	C18,10.768,18,10.966,18,11.007z M10,8c-1.104,0-2,0.896-2,2s0.896,2,2,2s2-0.896,2-2S11.104,8,10,8z"/>
</svg>
